<svg xmlns="http://www.w3.org/2000/svg" width="1024pt" height="1024pt" viewBox="0 0 1024 1024">
	<g>
		<path style="stroke:none;fill-rule:nonzero;fill:rgb(100%,80%,30.196078%);fill-opacity:1;"
		      d="M 920.121094 398.195312 C 920.121094 398.195312 1018.113281 147.542969 967.082031 56.917969 C 949.902344 26.394531 739.527344 113.75 662.074219 211.710938 C 662.074219 211.710938 588.515625 187.25 512 187.25 C 435.484375 187.25 361.925781 211.710938 361.925781 211.710938 C 284.472656 113.75 74.097656 26.394531 56.917969 56.917969 C 5.886719 147.542969 103.878906 398.195312 103.878906 398.195312 C 78.363281 447.175781 68.808594 521.785156 59.648438 601.855469 C 49.578125 689.636719 69.605469 759.609375 78.363281 775.054688 C 88.320312 792.605469 138.753906 849.152344 205.910156 897.535156 C 307.941406 971.007812 460.96875 995.527344 512 995.527344 C 563.03125 995.527344 716.058594 971.035156 818.089844 897.535156 C 885.246094 849.152344 935.679688 792.605469 945.636719 775.054688 C 954.394531 759.609375 974.421875 689.636719 964.378906 601.855469 C 955.164062 521.8125 945.636719 447.175781 920.121094 398.195312 Z M 920.121094 398.195312 "/>
		<path style="stroke:none;fill-rule:nonzero;fill:rgb(94.509804%,56.078431%,14.901961%);fill-opacity:1;"
		      d="M 67.101562 84.507812 C 72.789062 67.46875 219.222656 146.316406 252.5 238.222656 C 252.5 238.222656 144.183594 312.859375 123.703125 369.75 C 123.703125 369.75 38.65625 169.839844 67.101562 84.507812 Z M 67.101562 84.507812 "/>
		<path style="stroke:none;fill-rule:nonzero;fill:rgb(100%,80%,30.196078%);fill-opacity:1;"
		      d="M 170.097656 206.535156 C 170.097656 166.316406 325.320312 284.273438 296.875 312.71875 C 268.429688 341.164062 261.175781 333.199219 232.734375 361.644531 C 204.289062 390.085938 170.097656 234.980469 170.097656 206.535156 Z M 170.097656 206.535156 "/>
		<path style="stroke:none;fill-rule:nonzero;fill:rgb(94.509804%,56.078431%,14.901961%);fill-opacity:1;"
		      d="M 956.898438 84.507812 C 951.210938 67.46875 804.777344 146.316406 771.5 238.222656 C 771.5 238.222656 879.816406 312.859375 900.296875 369.75 C 900.296875 369.75 985.34375 169.839844 956.898438 84.507812 Z M 956.898438 84.507812 "/>
		<path style="stroke:none;fill-rule:nonzero;fill:rgb(100%,80%,30.196078%);fill-opacity:1;"
		      d="M 853.902344 206.535156 C 853.902344 166.316406 698.679688 284.273438 727.125 312.71875 C 755.570312 341.164062 762.824219 333.199219 791.265625 361.644531 C 819.710938 390.085938 853.902344 234.980469 853.902344 206.535156 Z M 853.902344 206.535156 "/>
		<path style="stroke:none;fill-rule:nonzero;fill:rgb(16.078431%,18.431373%,20%);fill-opacity:1;"
		      d="M 398.25 568.917969 C 398.25 600.347656 372.765625 625.777344 341.363281 625.777344 C 309.960938 625.777344 284.472656 600.347656 284.472656 568.917969 C 284.472656 537.515625 309.960938 512.058594 341.363281 512.058594 C 372.765625 512.058594 398.25 537.542969 398.25 568.917969 Z M 739.527344 568.917969 C 739.527344 600.347656 714.039062 625.777344 682.636719 625.777344 C 651.207031 625.777344 625.75 600.347656 625.75 568.917969 C 625.75 537.515625 651.207031 512.058594 682.636719 512.058594 C 714.070312 512.058594 739.527344 537.542969 739.527344 568.917969 Z M 739.527344 568.917969 "/>
		<path style="stroke:none;fill-rule:nonzero;fill:rgb(99.607843%,90.588235%,72.156863%);fill-opacity:1;"
		      d="M 62.605469 866.359375 C 58.394531 866.359375 54.242188 864.511719 51.425781 860.957031 C 46.5625 854.785156 47.617188 845.851562 53.789062 840.988281 C 58.394531 837.375 168.136719 752.242188 356.664062 766.890625 C 364.488281 767.488281 370.347656 774.316406 369.75 782.136719 C 369.152344 789.960938 362.4375 796.386719 354.476562 795.222656 C 177.179688 781.738281 72.449219 862.519531 71.425781 863.347656 C 68.777344 865.335938 65.679688 866.359375 62.605469 866.359375 Z M 314.851562 733.722656 C 313.457031 733.722656 312.007812 733.523438 310.613281 733.097656 C 174.363281 690.515625 62.09375 723.226562 60.957031 723.542969 C 53.417969 725.84375 45.511719 721.550781 43.234375 714.011719 C 40.988281 706.476562 45.253906 698.566406 52.765625 696.320312 C 57.683594 694.839844 174.675781 660.851562 319.0625 705.933594 C 326.570312 708.296875 330.753906 716.257812 328.390625 723.769531 C 326.515625 729.828125 320.910156 733.722656 314.851562 733.722656 Z M 961.394531 866.359375 C 965.605469 866.359375 969.757812 864.511719 972.574219 860.957031 C 977.4375 854.785156 976.382812 845.851562 970.210938 840.988281 C 965.605469 837.375 855.863281 752.242188 667.335938 766.890625 C 659.511719 767.488281 653.652344 774.316406 654.25 782.136719 C 654.875 789.960938 661.5625 796.386719 669.523438 795.222656 C 846.820312 781.738281 951.550781 862.519531 952.574219 863.347656 C 955.222656 865.335938 958.320312 866.359375 961.394531 866.359375 Z M 709.148438 733.722656 C 710.542969 733.722656 711.992188 733.523438 713.386719 733.097656 C 849.636719 690.515625 961.90625 723.226562 963.042969 723.542969 C 970.582031 725.84375 978.488281 721.550781 980.765625 714.011719 C 983.011719 706.476562 978.746094 698.566406 971.234375 696.320312 C 966.316406 694.839844 849.324219 660.851562 704.9375 705.933594 C 697.429688 708.296875 693.246094 716.257812 695.609375 723.769531 C 697.484375 729.828125 703.089844 733.722656 709.148438 733.722656 Z M 709.148438 733.722656 "/>
		<path style="stroke:none;fill-rule:nonzero;fill:rgb(40.392157%,45.882353%,49.803922%);fill-opacity:1;"
		      d="M 703.601562 878.875 C 700.84375 871.539062 692.679688 867.726562 685.3125 870.515625 C 669.609375 876.375 654.707031 879.359375 640.96875 879.359375 C 608.199219 879.359375 596.566406 870.65625 583.140625 860.613281 C 570.3125 851 555.945312 840.277344 526.535156 837.773438 L 526.535156 771.242188 C 526.535156 763.390625 520.164062 757.019531 512.3125 757.019531 C 504.460938 757.019531 498.089844 763.390625 498.089844 771.242188 L 498.089844 838.742188 C 475.050781 842.011719 459.804688 851.226562 446.4375 859.875 C 430.277344 870.316406 416.3125 879.359375 387.1875 879.359375 C 373.476562 879.359375 358.570312 876.402344 342.871094 870.515625 C 335.53125 867.8125 327.308594 871.507812 324.578125 878.875 C 321.820312 886.242188 325.574219 894.4375 332.914062 897.195312 C 351.800781 904.21875 370.0625 907.804688 387.15625 907.804688 C 424.675781 907.804688 444.445312 895.03125 461.882812 883.769531 C 476.785156 874.125 489.757812 865.820312 514.445312 865.707031 C 542.664062 865.933594 553.074219 873.613281 566.074219 883.371094 C 581.375 894.832031 598.699219 907.804688 640.96875 907.804688 C 658.0625 907.804688 676.351562 904.21875 695.238281 897.195312 C 702.605469 894.4375 706.359375 886.242188 703.601562 878.875 Z M 703.601562 878.875 "/>
		<path style="stroke:none;fill-rule:nonzero;fill:rgb(90.588235%,35.294118%,43.921569%);fill-opacity:1;"
		      d="M 551.820312 705.621094 L 472.179688 705.621094 C 453.972656 705.621094 439.097656 720.496094 439.097656 738.703125 C 439.097656 756.878906 453.972656 771.78125 472.179688 771.78125 L 478.917969 771.78125 L 478.917969 781.597656 C 478.917969 799.773438 493.796875 814.675781 512 814.675781 C 530.203125 814.675781 545.082031 799.800781 545.082031 781.597656 L 545.082031 771.78125 L 551.820312 771.78125 C 570 771.78125 584.902344 756.90625 584.902344 738.703125 C 584.902344 720.496094 570 705.621094 551.820312 705.621094 Z M 551.820312 705.621094 "/>
		<path style="stroke:none;fill-rule:nonzero;fill:rgb(94.509804%,56.078431%,14.901961%);fill-opacity:1;"
		      d="M 512.625 487.9375 C 504.773438 487.9375 498.402344 481.5625 498.402344 473.714844 L 498.402344 238.078125 C 498.402344 230.230469 504.773438 223.859375 512.625 223.859375 C 520.476562 223.859375 526.847656 230.230469 526.847656 238.078125 L 526.847656 473.714844 C 526.847656 481.59375 520.503906 487.9375 512.625 487.9375 Z M 597.332031 442.9375 C 589.484375 442.9375 583.109375 436.566406 583.109375 428.714844 C 583.109375 346.738281 618.15625 280.519531 619.664062 277.730469 C 623.359375 270.792969 632.035156 268.230469 638.917969 271.929688 C 645.832031 275.625 648.417969 284.246094 644.722656 291.1875 C 644.378906 291.78125 611.554688 354.132812 611.554688 428.714844 C 611.554688 436.566406 605.183594 442.9375 597.332031 442.9375 Z M 426.667969 442.9375 C 418.816406 442.9375 412.445312 436.566406 412.445312 428.714844 C 412.445312 354.105469 379.589844 291.78125 379.25 291.1875 C 375.550781 284.246094 378.167969 275.65625 385.082031 271.929688 C 391.964844 268.203125 400.582031 270.820312 404.308594 277.730469 C 405.816406 280.519531 440.859375 346.738281 440.859375 428.714844 C 440.890625 436.566406 434.515625 442.9375 426.667969 442.9375 Z M 426.667969 442.9375 "/>
	</g>
</svg>