<?xml version="1.0" encoding="UTF-8"?>
<svg xmlns="http://www.w3.org/2000/svg" viewBox="0 0 32 32">
	<defs>
		<radialGradient id="rad" cx="16" cy="16" fx="16" fy="16" r="16">
			<stop stop-color="#c60"/>
			<stop stop-color="#f60" offset="100%"/>
		</radialGradient>
	</defs>
	<rect width="32" height="32" fill="" id="rect840" style="fill-opacity:1.0;fill:url(#rad)"/>
	<g transform="matrix(1.1953925,0,0,1.2348537,5.3842732e-4,-0.5285174)">
		<path d="m 17.601,12.297 c 0.556,-0.371 1.212,-0.529 1.854,-0.457 L 26.769,4.524 22.673,0.428 15.358,7.744 c 0.074,0.65 -0.09,1.314 -0.476,1.877 z"/>
		<polygon
				points="5.136,24.006 6.256,22.623 5.99,22.354 10.642,17.701 9.486,16.561 4.842,21.207 4.577,20.942 3.19,22.063 0.854,25.744 1.452,26.342 "/>
		<path d="M 11.204,8.307 C 11.741,6.387 11.254,4.241 9.747,2.731 8.245,1.235 6.124,0.744 4.215,1.262 L 7.448,4.494 6.6,7.66 3.43,8.508 0.198,5.278 c -0.516,1.908 -0.026,4.029 1.473,5.529 1.571,1.572 3.835,2.033 5.815,1.389 l 0.018,0.018 13.299,13.299 c 0.526,0.525 1.216,0.791 1.905,0.791 0.69,0 1.378,-0.266 1.906,-0.791 1.051,-1.049 1.051,-2.754 0,-3.811 z M 22.94,25.061 c -0.566,0 -1.025,-0.461 -1.025,-1.029 0,-0.57 0.459,-1.029 1.025,-1.029 0.57,0 1.031,0.459 1.031,1.029 0.001,0.568 -0.46,1.029 -1.031,1.029 z"/>
	</g>
</svg>